<svg width="238" height="55" viewBox="0 0 238 55" fill="none" xmlns="http://www.w3.org/2000/svg">
<path d="M49.268 40V14.8H58.952C60.824 14.8 62.576 15.124 64.208 15.772C65.84 16.42 67.244 17.308 68.42 18.436C69.62 19.564 70.556 20.908 71.228 22.468C71.924 24.028 72.272 25.696 72.272 27.472C72.272 29.224 71.924 30.868 71.228 32.404C70.556 33.94 69.62 35.272 68.42 36.4C67.244 37.504 65.84 38.38 64.208 39.028C62.576 39.676 60.824 40 58.952 40H49.268ZM58.916 19.444H54.488V35.356H58.916C60.02 35.356 61.052 35.152 62.012 34.744C62.996 34.336 63.848 33.784 64.568 33.088C65.288 32.368 65.852 31.528 66.26 30.568C66.668 29.608 66.872 28.576 66.872 27.472C66.872 26.344 66.668 25.288 66.26 24.304C65.852 23.32 65.288 22.468 64.568 21.748C63.848 21.028 62.996 20.464 62.012 20.056C61.052 19.648 60.02 19.444 58.916 19.444ZM81.1106 40.324C79.0946 40.324 77.4506 39.796 76.1786 38.74C74.9066 37.66 74.2706 36.268 74.2706 34.564C74.2706 32.788 74.9546 31.396 76.3226 30.388C77.6906 29.38 79.5746 28.876 81.9746 28.876C82.7426 28.876 83.5106 28.936 84.2786 29.056C85.0466 29.176 85.8026 29.356 86.5466 29.596V28.264C86.5466 27.184 86.2106 26.368 85.5386 25.816C84.8666 25.264 83.8826 24.988 82.5866 24.988C81.7946 24.988 80.9306 25.12 79.9946 25.384C79.0826 25.624 78.0386 26.008 76.8626 26.536L75.0626 22.9C76.5266 22.228 77.9426 21.724 79.3106 21.388C80.7026 21.052 82.0706 20.884 83.4146 20.884C85.9346 20.884 87.8906 21.496 89.2826 22.72C90.6986 23.92 91.4066 25.624 91.4066 27.832V40H86.5466V38.704C85.7546 39.256 84.9146 39.664 84.0266 39.928C83.1626 40.192 82.1906 40.324 81.1106 40.324ZM78.9866 34.456C78.9866 35.176 79.2986 35.752 79.9226 36.184C80.5466 36.592 81.3746 36.796 82.4066 36.796C83.2226 36.796 83.9666 36.7 84.6386 36.508C85.3346 36.292 85.9706 35.992 86.5466 35.608V32.8C85.9466 32.56 85.3106 32.392 84.6386 32.296C83.9906 32.176 83.3066 32.116 82.5866 32.116C81.4586 32.116 80.5706 32.332 79.9226 32.764C79.2986 33.172 78.9866 33.736 78.9866 34.456ZM95.1393 40V21.244H100.071V22.72C100.791 22.12 101.583 21.664 102.447 21.352C103.335 21.04 104.295 20.884 105.327 20.884C107.487 20.884 109.263 21.58 110.655 22.972C112.047 24.364 112.743 26.152 112.743 28.336V40H107.811V29.056C107.811 27.88 107.451 26.932 106.731 26.212C106.035 25.492 105.099 25.132 103.923 25.132C103.107 25.132 102.363 25.3 101.691 25.636C101.043 25.948 100.503 26.404 100.071 27.004V40H95.1393ZM118.927 19.012C118.159 19.012 117.499 18.736 116.947 18.184C116.395 17.632 116.119 16.972 116.119 16.204C116.119 15.436 116.395 14.776 116.947 14.224C117.499 13.672 118.159 13.396 118.927 13.396C119.695 13.396 120.355 13.672 120.907 14.224C121.459 14.776 121.735 15.436 121.735 16.204C121.735 16.972 121.459 17.632 120.907 18.184C120.355 18.736 119.695 19.012 118.927 19.012ZM121.411 21.244V40H116.479V21.244H121.411ZM130.2 13.72V40H125.268V14.8L130.2 13.72ZM134.057 40V14.8L138.989 13.72V29.164L147.089 21.244H152.669L143.885 29.848L153.209 40H146.909L138.989 31.432V40H134.057ZM156.966 19.012C156.198 19.012 155.538 18.736 154.986 18.184C154.434 17.632 154.158 16.972 154.158 16.204C154.158 15.436 154.434 14.776 154.986 14.224C155.538 13.672 156.198 13.396 156.966 13.396C157.734 13.396 158.394 13.672 158.946 14.224C159.498 14.776 159.774 15.436 159.774 16.204C159.774 16.972 159.498 17.632 158.946 18.184C158.394 18.736 157.734 19.012 156.966 19.012ZM159.45 21.244V40H154.518V21.244H159.45ZM163.307 40V21.244H168.239V22.72C168.959 22.12 169.751 21.664 170.615 21.352C171.503 21.04 172.463 20.884 173.495 20.884C175.655 20.884 177.431 21.58 178.823 22.972C180.215 24.364 180.911 26.152 180.911 28.336V40H175.979V29.056C175.979 27.88 175.619 26.932 174.899 26.212C174.203 25.492 173.267 25.132 172.091 25.132C171.275 25.132 170.531 25.3 169.859 25.636C169.211 25.948 168.671 26.404 168.239 27.004V40H163.307ZM184.647 40V14.8L189.579 13.72V29.164L197.679 21.244H203.259L194.475 29.848L203.799 40H197.499L189.579 31.432V40H184.647ZM207.556 19.012C206.788 19.012 206.128 18.736 205.576 18.184C205.024 17.632 204.748 16.972 204.748 16.204C204.748 15.436 205.024 14.776 205.576 14.224C206.128 13.672 206.788 13.396 207.556 13.396C208.324 13.396 208.984 13.672 209.536 14.224C210.088 14.776 210.364 15.436 210.364 16.204C210.364 16.972 210.088 17.632 209.536 18.184C208.984 18.736 208.324 19.012 207.556 19.012ZM210.04 21.244V40H205.108V21.244H210.04ZM213.897 40V21.244H218.829V22.72C219.549 22.12 220.341 21.664 221.205 21.352C222.093 21.04 223.053 20.884 224.085 20.884C226.245 20.884 228.021 21.58 229.413 22.972C230.805 24.364 231.501 26.152 231.501 28.336V40H226.569V29.056C226.569 27.88 226.209 26.932 225.489 26.212C224.793 25.492 223.857 25.132 222.681 25.132C221.865 25.132 221.121 25.3 220.449 25.636C219.801 25.948 219.261 26.404 218.829 27.004V40H213.897Z" fill="black"/>
<circle cx="19.1888" cy="28.2254" r="15.1888" stroke="#0000FF" stroke-width="5"/>
<path d="M16.9602 4L11 50.3354" stroke="#0000FF" stroke-width="5"/>
</svg>
