<svg width="259" height="59" viewBox="0 0 259 59" fill="none" xmlns="http://www.w3.org/2000/svg">
<rect x="251.508" y="14.9332" width="7.49075" height="31.098" fill="black"/>
<path d="M259 3.12958L251.51 3.12958V6.64796L255.369 10.6203H259V3.12958Z" fill="black"/>
<path d="M206.109 46.0311H198.619V14.9332H206.109V17.7706C210.649 12.7768 219.048 12.6633 221.999 17.7706C228.695 11.6418 244.017 12.6633 244.017 23.6724V46.0311H236.526V25.3749C236.526 19.473 228.582 19.0191 225.177 24.2399V46.0311H217.686V25.3749C217.686 19.927 210.082 18.5651 206.109 24.2399V46.0311Z" fill="black"/>
<path fill-rule="evenodd" clip-rule="evenodd" d="M183.64 14.9332H191.131V46.0311H183.64V42.228C176.035 51.9329 157.647 46.3716 157.533 30.5956C157.42 14.8196 175.693 9.48537 183.64 18.1668V14.9332ZM165.251 29.9704C165.251 44.1017 183.41 42.5127 183.41 29.9146C183.41 17.3166 165.251 17.7705 165.251 29.9704Z" fill="black"/>
<path fill-rule="evenodd" clip-rule="evenodd" d="M144.141 14.9332H151.631V43.4207C151.631 64.304 118.718 61.6936 118.718 46.0311H126.208C128.252 54.3164 144.141 54.3164 144.141 43.0803V42.2858C136.423 50.0035 118.831 46.1447 118.718 30.3687C118.604 14.5927 136.196 9.59896 144.141 18.2246V14.9332ZM126.208 30.0282C126.209 42.8533 144.368 42.6263 144.255 30.0282C144.255 17.7706 126.208 17.2032 126.208 30.0282Z" fill="black"/>
<rect x="103.736" y="14.9332" width="7.49075" height="31.098" fill="black"/>
<path d="M103.736 3.12958H111.227V6.64796L107.368 10.6203H103.736V3.12958Z" fill="black"/>
<path fill-rule="evenodd" clip-rule="evenodd" d="M63.3311 46.0316V3.13005H83.5334C97.9474 3.01651 101.012 22.786 87.7327 27.3258L96.2449 40.8286V46.0316H90.1162L78.88 28.1203H70.8218V46.0316H63.3311ZM70.8218 10.6208V20.6295H83.1929C90.2297 20.6295 90.0027 10.6208 83.1929 10.6208H70.8218Z" fill="black"/>
<path d="M14.5033 3.08333H46.2503V46.25L8.79346 8.79321L14.5033 3.08333Z" fill="url(#paint0_linear)"/>
<path d="M46.25 3.08333H14.5031L3.08332 14.5031V46.25L46.25 3.08333Z" fill="url(#paint1_linear)"/>
<path d="M3.0835 14.5031L14.5032 14.5031L14.5032 3.08333L3.0835 14.5031Z" fill="#8DD5FF"/>
<defs>
<linearGradient id="paint0_linear" x1="27.5219" y1="3.08333" x2="27.5219" y2="46.25" gradientUnits="userSpaceOnUse">
<stop stop-color="#0E68CC"/>
<stop offset="0.337643" stop-color="#277DDD"/>
<stop offset="1" stop-color="#3689E6"/>
</linearGradient>
<linearGradient id="paint1_linear" x1="8.679" y1="8.9074" x2="23.7531" y2="24.7809" gradientUnits="userSpaceOnUse">
<stop stop-color="#34A5FF"/>
<stop offset="0.774612" stop-color="#54B1FC"/>
<stop offset="1" stop-color="#64BAFF"/>
</linearGradient>
</defs>
</svg>
